<?xml version="1.0" encoding="UTF-8"?>
<svg width="53px" height="53px" viewBox="0 0 53 53" version="1.1" xmlns="http://www.w3.org/2000/svg" xmlns:xlink="http://www.w3.org/1999/xlink">
    <!-- Generator: Sketch 52.6 (67491) - http://www.bohemiancoding.com/sketch -->
    <title>australia</title>
    <desc>Created with Sketch.</desc>
    <g id="Page-1" stroke="none" stroke-width="1" fill="none" fill-rule="evenodd">
        <g id="Section-2" transform="translate(-1422.000000, -702.000000)">
            <g id="Group-3" transform="translate(736.000000, 644.000000)">
                <g id="AUS" transform="translate(518.000000, 44.000000)">
                    <g id="australia" transform="translate(167.500000, 13.500000)">
                        <path d="M53.5,27 C53.5,41.6354531 41.6354531,53.5 27,53.5 C12.3645469,53.5 0.5,41.6354531 0.5,27 C0.5,27.0062109 27,0.503001953 27,0.5 C41.6354531,0.5 53.5,12.3645469 53.5,27 Z" id="Path" fill="#0052B4"></path>
                        <g id="Group" transform="translate(0.500000, 0.500000)" fill="#F0F0F0">
                            <path d="M27.8910506,0.100775194 C27.8895253,0.100775194 27.8878911,0.100875969 27.8863658,0.100875969 L27.8910506,0.100775194 Z" id="Path"></path>
                            <path d="M27.8164202,25.8992248 L27.8910506,25.8992248 C27.8910506,25.875845 27.8910506,25.8534729 27.8910506,25.8301938 C27.8662101,25.8532713 27.8413696,25.8762481 27.8164202,25.8992248 Z" id="Path"></path>
                            <path d="M27.8910506,13.5609147 C27.8910506,9.02149612 27.8910506,6.04691473 27.8911595,0.100875969 L27.8863658,0.100875969 C12.4847315,0.103193798 0,11.6525349 0,25.8992248 L14.5518288,25.8992248 L14.5518288,18.3197209 L22.7461323,25.8992248 L27.8165292,25.8992248 C27.8414786,25.8762481 27.8663191,25.8532713 27.8911595,25.8301938 C27.8911595,24.092124 27.8911595,22.5412946 27.8911595,21.1405194 L19.6967471,13.5609147 L27.8910506,13.5609147 Z" id="Path"></path>
                        </g>
                        <g id="Group" transform="translate(5.500000, 3.500000)" fill="#D80027">
                            <path d="M9.95446188,0.0403273543 C5.82487892,2.39179372 2.39179372,5.82487892 0.0403273543,9.95446188 L0.0403273543,23 L6.92826009,23 L6.92826009,6.92836323 L6.92826009,6.92826009 L23,6.92826009 C23,4.75584305 23,2.68625561 23,0.0403273543 L9.95446188,0.0403273543 Z" id="Path"></path>
                            <path d="M23,19.7530807 L13.6191973,10.3723812 L10.372278,10.3723353 C10.372278,10.3723353 10.372278,10.3723353 10.372278,10.3723353 L23,23 C23,23 23,20.7613677 23,19.7530807 Z" id="Path"></path>
                        </g>
                        <g id="Group" transform="translate(11.500000, 11.500000)" fill="#F0F0F0">
                            <polygon id="Path" points="6.01721774 20.1485183 7.49020161 23.2717608 10.8164194 22.4921728 9.32687097 25.6073355 12.0017258 27.7583522 8.67131452 28.5195482 8.68064516 31.9815017 6.01721774 29.8156013 3.35389516 31.9815017 3.36322581 28.5195482 0.0327096774 27.7583522 2.70766935 25.6073355 1.21791129 22.4921728 4.54433871 23.2717608"></polygon>
                            <polygon id="Path" points="30.0136452 26.06501 30.7501371 27.6266312 32.4132984 27.2367841 31.6684194 28.7943654 33.0059516 29.8699269 31.3406935 30.2505249 31.3453065 31.9815017 30.0136452 30.8984983 28.6819839 31.9815017 28.6865968 30.2505249 27.0214435 29.8699269 28.358871 28.7943654 27.6140968 27.2367841 29.2771532 27.6266312"></polygon>
                            <polygon id="Path" points="23.1623306 9.4987907 23.8987177 11.0605183 25.561879 10.6705648 24.8171048 12.2281462 26.1545323 13.3037076 24.489379 13.6843056 24.4938871 15.4152824 23.1623306 14.3322791 21.8306694 15.4152824 21.8351774 13.6843056 20.1700242 13.3037076 21.5074516 12.2281462 20.7626774 10.6705648 22.4258387 11.0605183"></polygon>
                            <polygon id="Path" points="30.0136452 0.0323189369 30.7501371 1.59404651 32.4132984 1.20419934 31.6685242 2.76178073 33.0058468 3.83723588 31.3406935 4.2179402 31.3453065 5.94891694 30.0136452 4.86591362 28.6819839 5.94891694 28.6865968 4.2179402 27.0214435 3.83723588 28.3587661 2.76178073 27.6140968 1.20419934 29.2771532 1.59404651"></polygon>
                            <polygon id="Path" points="35.9982581 7.13217276 36.7346452 8.69390033 38.3978065 8.30394684 37.6530323 9.86152824 38.9904597 10.9370897 37.3252016 11.317794 37.3298145 13.0486645 35.9982581 11.9657674 34.6665968 13.0486645 34.6711048 11.317794 33.0059516 10.9370897 34.343379 9.86152824 33.5986048 8.30394684 35.2616613 8.69390033"></polygon>
                            <polygon id="Path" points="31.7189516 15.4152824 32.2981855 17.2232292 34.1729113 17.2232292 32.6562097 18.3406777 33.2356532 20.1485183 31.7189516 19.0311761 30.2023548 20.1485183 30.7815887 18.3406777 29.2649919 17.2232292 31.1396129 17.2232292"></polygon>
                        </g>
                    </g>
                </g>
            </g>
        </g>
    </g>
</svg>