<?xml version="1.0" encoding="UTF-8"?>
<svg width="30px" height="21px" viewBox="0 0 30 21" version="1.1" xmlns="http://www.w3.org/2000/svg" xmlns:xlink="http://www.w3.org/1999/xlink">
    <!-- Generator: Sketch 52.6 (67491) - http://www.bohemiancoding.com/sketch -->
    <title>backicon</title>
    <desc>Created with Sketch.</desc>
    <g id="Page-1" stroke="none" stroke-width="1" fill="none" fill-rule="evenodd">
        <g id="Section-2" transform="translate(-127.000000, -442.000000)" fill="#FFFFFF">
            <g id="back" transform="translate(127.000000, 435.000000)">
                <path d="M9.78615484,7.31583939 C10.2090825,6.8947202 10.8749077,6.8947202 11.2978354,7.31583939 C11.7064749,7.72273158 11.7064749,8.39993677 11.2978354,8.80588049 L3.63274832,16.4381916 L28.9264877,16.4381916 C29.5161098,16.4381916 30,16.9048372 30,17.491938 C30,18.0790389 29.5161098,18.5608599 28.9264877,18.5608599 L3.63274832,18.5608599 L11.2978354,26.178944 C11.7064749,26.6000632 11.7064749,27.2782169 11.2978354,27.6841606 C10.8749077,28.1052798 10.2090825,28.1052798 9.78615484,27.6841606 L0.306479651,18.2450206 C-0.102159884,17.8381284 -0.102159884,17.1609232 0.306479651,16.7549794 L9.78615484,7.31583939 Z" id="backicon"></path>
            </g>
        </g>
    </g>
</svg>