<?xml version="1.0" encoding="UTF-8"?>
<svg width="80px" height="52px" viewBox="0 0 80 52" version="1.1" xmlns="http://www.w3.org/2000/svg" xmlns:xlink="http://www.w3.org/1999/xlink">
    <!-- Generator: Sketch 52.6 (67491) - http://www.bohemiancoding.com/sketch -->
    <title>canada</title>
    <desc>Created with Sketch.</desc>
    <g id="Page-1" stroke="none" stroke-width="1" fill="none" fill-rule="evenodd">
        <g id="Section-1" transform="translate(-1398.000000, -274.000000)">
            <g id="canada" transform="translate(1398.000000, 274.000000)">
                <g id="Group" fill="#F5F5F5">
                    <path d="M78.4673684,51.9569762 L1.37668616,51.9569762 C0.616452242,51.9569762 0,51.3452024 0,50.5907381 L0,1.4084881 C0,0.65402381 0.616452242,0.04225 1.37668616,0.04225 L78.4675244,0.04225 C79.2277583,0.04225 79.8442105,0.65402381 79.8442105,1.4084881 L79.8442105,50.5907381 C79.8440546,51.3453571 79.2276023,51.9569762 78.4673684,51.9569762 Z" id="Path"></path>
                    <rect id="Rectangle" x="17.8962963" y="0.0430238095" width="44.051462" height="51.914881"></rect>
                </g>
                <g id="flag-canada" fill="#DB1313">
                    <path d="M1.379375,0.0424047619 C0.61765625,0.0424047619 0,0.65402381 0,1.4084881 L0,50.5907381 C0,51.3452024 0.61765625,51.9569762 1.379375,51.9569762 L17.9310937,51.9569762 L17.9310937,0.0424047619 L1.379375,0.0424047619 Z" id="Path"></path>
                    <path d="M78.620625,0.0424047619 L62.0689062,0.0424047619 L62.0689062,51.9569762 L78.620625,51.9569762 C79.3823437,51.9569762 80,51.3452024 80,50.5907381 L80,1.4084881 C80,0.65402381 79.3823437,0.0424047619 78.620625,0.0424047619 Z" id="Path"></path>
                    <path d="M48.3701562,31.9982619 L56.555,27.3659286 L54.676875,26.4358095 C54.1501562,26.174881 53.8485937,25.6115476 53.9265625,25.0332024 L54.5376562,20.4952738 L51.0725,21.4937976 C50.3070312,21.7144881 49.5126562,21.2480357 49.3404687,20.4771667 L49.0085937,18.9914524 L45.755,22.763 C45.3039062,23.2857857 44.4446875,22.8865 44.5623437,22.2086429 L45.951875,14.2062143 L43.8245312,14.7825476 C43.203125,14.9509286 42.546875,14.6708095 42.2439062,14.1077857 L40.00375,9.94917857 L40.00375,9.9429881 L40.0021875,9.94608333 L40.0004687,9.9429881 L40.0004687,9.94917857 L37.7603125,14.1077857 C37.4570312,14.6706548 36.8007812,14.9507738 36.179375,14.7825476 L34.051875,14.2062143 L35.4414062,22.2086429 C35.5590625,22.8861905 34.6996875,23.285631 34.2485937,22.763 L30.995,18.9914524 L30.663125,20.4771667 C30.4909375,21.2481905 29.6965625,21.7143333 28.9310937,21.4937976 L25.4659375,20.4952738 L26.0770312,25.0332024 C26.155,25.6113929 25.8534375,26.174881 25.3267187,26.4358095 L23.4485937,27.3659286 L31.6334375,31.9984167 C32.48125,32.4783333 32.8528125,33.4960476 32.5107812,34.401869 L31.8110937,36.2554524 L38.824375,35.6624048 C39.2125,35.6295952 39.5428125,35.939119 39.5314062,36.324631 L39.3104687,43.7600119 L40.6898437,43.7600119 L40.46875,36.3243214 C40.4573437,35.9386548 40.7876562,35.6292857 41.1757812,35.6620952 L48.1923437,36.2554524 L47.4926562,34.401869 C47.1509375,33.4958929 47.5223437,32.4780238 48.3701562,31.9982619 Z" id="Path"></path>
                </g>
            </g>
        </g>
    </g>
</svg>