<?xml version="1.0" encoding="UTF-8"?>
<svg width="54px" height="54px" viewBox="0 0 54 54" version="1.1" xmlns="http://www.w3.org/2000/svg" xmlns:xlink="http://www.w3.org/1999/xlink">
    <!-- Generator: Sketch 52.6 (67491) - http://www.bohemiancoding.com/sketch -->
    <title>european-union</title>
    <desc>Created with Sketch.</desc>
    <g id="Page-1" stroke="none" stroke-width="1" fill="none" fill-rule="evenodd">
        <g id="Section-2" transform="translate(-1163.000000, -702.000000)">
            <g id="Group-3" transform="translate(736.000000, 644.000000)">
                <g id="EURO" transform="translate(259.000000, 44.000000)">
                    <g id="european-union" transform="translate(168.000000, 13.500000)">
                        <circle id="Oval" fill="#0052B4" cx="27" cy="27.5" r="27"></circle>
                        <g id="Group" transform="translate(11.000000, 10.500000)" fill="#FFDA44">
                            <polygon id="Path" points="16.5001058 0.0184038462 17.3768269 2.71647115 20.2135577 2.71647115 17.9184712 4.38392308 18.7951923 7.08199038 16.5001058 5.41443269 14.2049135 7.08199038 15.0816346 4.38392308 12.7865481 2.71647115 15.6233846 2.71647115"></polygon>
                            <polygon id="Path" points="4.84571154 4.84571154 7.37359615 6.13355769 9.37950962 4.12775 8.93559615 6.92957692 11.463375 8.21752885 8.66144231 8.66133654 8.21763462 11.463375 6.92968269 8.93559615 4.12785577 9.37950962 6.13376923 7.37359615"></polygon>
                            <polygon id="Path" points="0.0185096154 16.5 2.71657692 15.6232788 2.71657692 12.7864423 4.38392308 15.0816346 7.08209615 14.2049135 5.41443269 16.5 7.08209615 18.7950865 4.38392308 17.9184712 2.71657692 20.2135577 2.71657692 17.3767212"></polygon>
                            <polygon id="Path" points="4.84571154 28.1542885 6.13366346 25.6264038 4.12785577 23.6204904 6.92978846 24.0645096 8.21752885 21.5367308 8.66144231 24.3386635 11.4632692 24.7824712 8.93580769 26.0704231 9.37950962 28.87225 7.37359615 26.8663365"></polygon>
                            <polygon id="Path" points="16.5001058 32.9815962 15.6232788 30.2835288 12.7865481 30.2835288 15.0817404 28.6160769 14.2049135 25.9182212 16.5001058 27.5855673 18.7951923 25.9182212 17.9184712 28.6160769 20.2135577 30.2835288 17.3767212 30.2835288"></polygon>
                            <polygon id="Path" points="28.1543942 28.1542885 25.6266154 26.8664423 23.6205962 28.8723558 24.0645096 26.0703173 21.5369423 24.7824712 24.3387692 24.3386635 24.7825769 21.5367308 26.0704231 24.0645096 28.87225 23.6204904 26.8663365 25.6266154"></polygon>
                            <polygon id="Path" points="32.9815962 16.5 30.2835288 17.3767212 30.2835288 20.2135577 28.6160769 17.9183654 25.9182212 18.7950865 27.5856731 16.5 25.9182212 14.2049135 28.6161827 15.0816346 30.2835288 12.7864423 30.2835288 15.6233846"></polygon>
                            <polygon id="Path" points="28.1543942 4.84571154 26.8664423 7.37359615 28.8723558 9.37950962 26.0703173 8.93549038 24.7825769 11.4632692 24.3387692 8.66133654 21.5369423 8.21742308 24.0645096 6.92957692 23.6205962 4.12785577 25.6267212 6.13366346"></polygon>
                        </g>
                    </g>
                </g>
            </g>
        </g>
    </g>
</svg>