<?xml version="1.0" encoding="UTF-8"?>
<svg width="21px" height="21px" viewBox="0 0 21 21" version="1.1" xmlns="http://www.w3.org/2000/svg" xmlns:xlink="http://www.w3.org/1999/xlink">
    <!-- Generator: Sketch 52.6 (67491) - http://www.bohemiancoding.com/sketch -->
    <title>phoneicon</title>
    <desc>Created with Sketch.</desc>
    <g id="Page-1" stroke="none" stroke-width="1" fill="none" fill-rule="evenodd">
        <g id="Section-1" transform="translate(-1527.000000, -837.000000)">
            <g id="Phonenumber" transform="translate(1386.000000, 819.000000)">
                <g id="phoneicon" transform="translate(141.000000, 18.000000)">
                    <path d="M15.1383559,14.2602874 C14.4878199,13.6180559 13.6756858,13.6180559 13.0292934,14.2602874 C12.536212,14.749212 12.0431306,15.2381366 11.5583363,15.7353481 C11.4257429,15.8720813 11.3138673,15.9010853 11.1522692,15.8099298 C10.8332165,15.6359058 10.4934462,15.4950292 10.1868241,15.3044315 C8.75730239,14.4053074 7.55981897,13.2492907 6.49907242,11.948254 C5.97284268,11.3018791 5.50462253,10.6099265 5.17728277,9.83096184 C5.11098611,9.67351154 5.12341673,9.56992582 5.25186651,9.44147952 C5.74494792,8.96498519 6.2255987,8.47606057 6.71039302,7.98713595 C7.38579024,7.3076136 7.38579024,6.51207524 6.70624948,5.82840946 C6.32090015,5.43892714 5.93555081,5.05773168 5.55020148,4.66824935 C5.15242152,4.27048017 4.7587851,3.86856756 4.35686161,3.47494181 C3.70632563,2.84099718 2.89419155,2.84099718 2.24779912,3.47908524 C1.75057417,3.96800986 1.27406693,4.46936476 0.768554902,4.95000252 C0.300334744,5.39334942 0.0641528936,5.93613862 0.0144303988,6.57008325 C-0.0642968845,7.60179706 0.18845913,8.57550287 0.544803676,9.5243481 C1.27406693,11.4883334 2.38453598,13.232717 3.73118688,14.8320806 C5.55020148,16.9949505 7.72141708,18.7061867 10.2614079,19.9409285 C11.4050252,20.496148 12.590078,20.9229212 13.8787193,20.9933595 C14.7654372,21.0430806 15.5361358,20.8193355 16.1535235,20.1273828 C16.5761647,19.6550319 17.0526719,19.2241153 17.5001744,18.7724816 C18.163141,18.1012461 18.1672845,17.289134 17.5084615,16.6261853 C16.7211886,15.8347904 15.9297723,15.0475389 15.1383559,14.2602874 Z" id="phoneicon3" fill="#D80027"></path>
                    <path d="M14.476256,10 L16,9.73417722 C15.7604955,8.30379747 15.0997935,7.00843882 14.0963524,5.97890295 C13.0350998,4.89451477 11.6930489,4.21097046 10.2147281,4 L10,5.56540084 C11.1438403,5.72995781 12.184446,6.25738397 13.0061941,7.09704641 C13.7825189,7.89029536 14.2904336,8.89451477 14.476256,10 Z" id="phoneicon2" fill="#BBBBBB"></path>
                    <path d="M17.7788057,3.35634167 C15.9873844,1.51855047 13.7207738,0.358067299 11.2186712,0 L11,1.60051769 C13.1614802,1.91113028 15.1211102,2.91630716 16.6686291,4.49956859 C18.1362489,6.00517688 19.0992431,7.90767903 19.4482759,10 L21,9.72821398 C20.5920942,7.30371009 19.4777124,5.10353753 17.7788057,3.35634167 Z" id="phoneicon1" fill="#BBBBBB"></path>
                </g>
            </g>
        </g>
    </g>
</svg>